<mxfile host="app.diagrams.net" modified="2020-05-04T11:54:17.683Z" agent="5.0 (Macintosh; Intel Mac OS X 10_15_3) AppleWebKit/605.1.15 (KHTML, like Gecko) Version/13.0.5 Safari/605.1.15" etag="qARM3Cd2ydcUtkQNdfYB" version="12.9.6" type="github">
  <diagram id="naz7NzOcKD-QqL_7P5jK" name="Page-1">
    <mxGraphModel dx="1183" dy="561" grid="1" gridSize="10" guides="1" tooltips="1" connect="1" arrows="1" fold="1" page="1" pageScale="1" pageWidth="850" pageHeight="1100" math="0" shadow="0">
      <root>
        <mxCell id="0" />
        <mxCell id="1" parent="0" />
        <mxCell id="hdsZDOFmJW38S7iMikZD-3" value="" style="rounded=0;whiteSpace=wrap;html=1;" parent="1" vertex="1">
          <mxGeometry x="180" y="90" width="440" height="650" as="geometry" />
        </mxCell>
        <mxCell id="hdsZDOFmJW38S7iMikZD-5" value="Administrativt" style="text;html=1;strokeColor=none;fillColor=none;align=center;verticalAlign=middle;whiteSpace=wrap;rounded=0;" parent="1" vertex="1">
          <mxGeometry x="350" y="70" width="40" height="20" as="geometry" />
        </mxCell>
        <mxCell id="hdsZDOFmJW38S7iMikZD-6" value="Program" style="text;html=1;strokeColor=none;fillColor=none;align=center;verticalAlign=middle;whiteSpace=wrap;rounded=0;" parent="1" vertex="1">
          <mxGeometry x="420" y="70" width="40" height="20" as="geometry" />
        </mxCell>
        <mxCell id="hdsZDOFmJW38S7iMikZD-7" value="StudentTeach" style="text;html=1;strokeColor=none;fillColor=none;align=center;verticalAlign=middle;whiteSpace=wrap;rounded=0;" parent="1" vertex="1">
          <mxGeometry x="380" y="90" width="40" height="20" as="geometry" />
        </mxCell>
        <mxCell id="Q4LFnAZzLEwqTKA5tDAf-13" style="edgeStyle=orthogonalEdgeStyle;rounded=0;orthogonalLoop=1;jettySize=auto;html=1;exitX=1;exitY=0.3333333333333333;exitDx=0;exitDy=0;exitPerimeter=0;entryX=0.075;entryY=0.283;entryDx=0;entryDy=0;endArrow=none;endFill=0;strokeColor=#000000;entryPerimeter=0;" parent="1" source="hdsZDOFmJW38S7iMikZD-9" target="hdsZDOFmJW38S7iMikZD-17" edge="1">
          <mxGeometry relative="1" as="geometry">
            <Array as="points" />
          </mxGeometry>
        </mxCell>
        <mxCell id="Q4LFnAZzLEwqTKA5tDAf-14" style="edgeStyle=orthogonalEdgeStyle;rounded=0;orthogonalLoop=1;jettySize=auto;html=1;exitX=1;exitY=0.3333333333333333;exitDx=0;exitDy=0;exitPerimeter=0;entryX=0;entryY=0.5;entryDx=0;entryDy=0;endArrow=none;endFill=0;strokeColor=#000000;" parent="1" source="hdsZDOFmJW38S7iMikZD-9" target="Q4LFnAZzLEwqTKA5tDAf-2" edge="1">
          <mxGeometry relative="1" as="geometry">
            <Array as="points">
              <mxPoint x="220" y="347" />
              <mxPoint x="220" y="470" />
            </Array>
          </mxGeometry>
        </mxCell>
        <mxCell id="Q4LFnAZzLEwqTKA5tDAf-42" style="edgeStyle=orthogonalEdgeStyle;rounded=0;orthogonalLoop=1;jettySize=auto;html=1;exitX=1;exitY=0.3333333333333333;exitDx=0;exitDy=0;exitPerimeter=0;entryX=0;entryY=0.5;entryDx=0;entryDy=0;endArrow=none;endFill=0;strokeColor=#000000;" parent="1" source="hdsZDOFmJW38S7iMikZD-9" target="Q4LFnAZzLEwqTKA5tDAf-11" edge="1">
          <mxGeometry relative="1" as="geometry">
            <Array as="points">
              <mxPoint x="170" y="347" />
              <mxPoint x="170" y="690" />
            </Array>
          </mxGeometry>
        </mxCell>
        <mxCell id="hT9fbZHffNhWlzX2S7f2-4" style="edgeStyle=orthogonalEdgeStyle;rounded=0;orthogonalLoop=1;jettySize=auto;html=1;exitX=1;exitY=0.3333333333333333;exitDx=0;exitDy=0;exitPerimeter=0;entryX=0;entryY=0.5;entryDx=0;entryDy=0;endArrow=none;endFill=0;" edge="1" parent="1" source="hdsZDOFmJW38S7iMikZD-9" target="Q4LFnAZzLEwqTKA5tDAf-5">
          <mxGeometry relative="1" as="geometry">
            <Array as="points">
              <mxPoint x="220" y="347" />
              <mxPoint x="220" y="275" />
            </Array>
          </mxGeometry>
        </mxCell>
        <mxCell id="hT9fbZHffNhWlzX2S7f2-7" style="edgeStyle=orthogonalEdgeStyle;rounded=0;orthogonalLoop=1;jettySize=auto;html=1;exitX=1;exitY=0.3333333333333333;exitDx=0;exitDy=0;exitPerimeter=0;entryX=0;entryY=0.5;entryDx=0;entryDy=0;endArrow=none;endFill=0;" edge="1" parent="1" source="hdsZDOFmJW38S7iMikZD-9" target="hdsZDOFmJW38S7iMikZD-16">
          <mxGeometry relative="1" as="geometry">
            <Array as="points">
              <mxPoint x="220" y="347" />
              <mxPoint x="220" y="195" />
            </Array>
          </mxGeometry>
        </mxCell>
        <mxCell id="hT9fbZHffNhWlzX2S7f2-12" style="edgeStyle=orthogonalEdgeStyle;rounded=0;orthogonalLoop=1;jettySize=auto;html=1;exitX=1;exitY=0.3333333333333333;exitDx=0;exitDy=0;exitPerimeter=0;entryX=0;entryY=0.5;entryDx=0;entryDy=0;endArrow=none;endFill=0;" edge="1" parent="1" source="hdsZDOFmJW38S7iMikZD-9" target="hT9fbZHffNhWlzX2S7f2-11">
          <mxGeometry relative="1" as="geometry">
            <Array as="points">
              <mxPoint x="220" y="347" />
              <mxPoint x="220" y="543" />
            </Array>
          </mxGeometry>
        </mxCell>
        <mxCell id="hT9fbZHffNhWlzX2S7f2-15" style="edgeStyle=orthogonalEdgeStyle;rounded=0;orthogonalLoop=1;jettySize=auto;html=1;exitX=1;exitY=0.3333333333333333;exitDx=0;exitDy=0;exitPerimeter=0;entryX=0;entryY=0.5;entryDx=0;entryDy=0;endArrow=none;endFill=0;" edge="1" parent="1" source="hdsZDOFmJW38S7iMikZD-9" target="hT9fbZHffNhWlzX2S7f2-13">
          <mxGeometry relative="1" as="geometry" />
        </mxCell>
        <mxCell id="hT9fbZHffNhWlzX2S7f2-19" style="edgeStyle=orthogonalEdgeStyle;rounded=0;orthogonalLoop=1;jettySize=auto;html=1;exitX=1;exitY=0.3333333333333333;exitDx=0;exitDy=0;exitPerimeter=0;entryX=0;entryY=0.5;entryDx=0;entryDy=0;endArrow=none;endFill=0;" edge="1" parent="1" source="hdsZDOFmJW38S7iMikZD-9" target="hT9fbZHffNhWlzX2S7f2-18">
          <mxGeometry relative="1" as="geometry">
            <Array as="points">
              <mxPoint x="380" y="347" />
            </Array>
          </mxGeometry>
        </mxCell>
        <mxCell id="hdsZDOFmJW38S7iMikZD-9" value="Student" style="shape=umlActor;verticalLabelPosition=bottom;labelBackgroundColor=#ffffff;verticalAlign=top;html=1;outlineConnect=0;" parent="1" vertex="1">
          <mxGeometry x="110" y="310" width="50" height="110" as="geometry" />
        </mxCell>
        <mxCell id="hT9fbZHffNhWlzX2S7f2-1" style="edgeStyle=orthogonalEdgeStyle;rounded=0;orthogonalLoop=1;jettySize=auto;html=1;exitX=0;exitY=0.3333333333333333;exitDx=0;exitDy=0;exitPerimeter=0;entryX=1;entryY=0.5;entryDx=0;entryDy=0;endArrow=none;endFill=0;" edge="1" parent="1" source="hdsZDOFmJW38S7iMikZD-10" target="hdsZDOFmJW38S7iMikZD-19">
          <mxGeometry relative="1" as="geometry" />
        </mxCell>
        <mxCell id="hT9fbZHffNhWlzX2S7f2-2" style="edgeStyle=orthogonalEdgeStyle;rounded=0;orthogonalLoop=1;jettySize=auto;html=1;exitX=0;exitY=0.3333333333333333;exitDx=0;exitDy=0;exitPerimeter=0;entryX=1;entryY=0.5;entryDx=0;entryDy=0;endArrow=none;endFill=0;" edge="1" parent="1" source="hdsZDOFmJW38S7iMikZD-10" target="hdsZDOFmJW38S7iMikZD-20">
          <mxGeometry relative="1" as="geometry" />
        </mxCell>
        <mxCell id="hT9fbZHffNhWlzX2S7f2-3" style="edgeStyle=orthogonalEdgeStyle;rounded=0;orthogonalLoop=1;jettySize=auto;html=1;exitX=0;exitY=0.3333333333333333;exitDx=0;exitDy=0;exitPerimeter=0;entryX=1;entryY=0.5;entryDx=0;entryDy=0;endArrow=none;endFill=0;" edge="1" parent="1" source="hdsZDOFmJW38S7iMikZD-10" target="hdsZDOFmJW38S7iMikZD-23">
          <mxGeometry relative="1" as="geometry" />
        </mxCell>
        <mxCell id="hT9fbZHffNhWlzX2S7f2-5" style="edgeStyle=orthogonalEdgeStyle;rounded=0;orthogonalLoop=1;jettySize=auto;html=1;exitX=0;exitY=0.3333333333333333;exitDx=0;exitDy=0;exitPerimeter=0;entryX=1;entryY=0.5;entryDx=0;entryDy=0;endArrow=none;endFill=0;" edge="1" parent="1" source="hdsZDOFmJW38S7iMikZD-10" target="Q4LFnAZzLEwqTKA5tDAf-5">
          <mxGeometry relative="1" as="geometry" />
        </mxCell>
        <mxCell id="hT9fbZHffNhWlzX2S7f2-6" style="edgeStyle=orthogonalEdgeStyle;rounded=0;orthogonalLoop=1;jettySize=auto;html=1;exitX=0;exitY=0.3333333333333333;exitDx=0;exitDy=0;exitPerimeter=0;entryX=1;entryY=0.5;entryDx=0;entryDy=0;endArrow=none;endFill=0;" edge="1" parent="1" source="hdsZDOFmJW38S7iMikZD-10" target="hdsZDOFmJW38S7iMikZD-16">
          <mxGeometry relative="1" as="geometry">
            <Array as="points">
              <mxPoint x="570" y="367" />
              <mxPoint x="570" y="195" />
            </Array>
          </mxGeometry>
        </mxCell>
        <mxCell id="hT9fbZHffNhWlzX2S7f2-20" style="edgeStyle=orthogonalEdgeStyle;rounded=0;orthogonalLoop=1;jettySize=auto;html=1;exitX=0;exitY=0.3333333333333333;exitDx=0;exitDy=0;exitPerimeter=0;entryX=1;entryY=0.5;entryDx=0;entryDy=0;endArrow=none;endFill=0;" edge="1" parent="1" source="hdsZDOFmJW38S7iMikZD-10" target="hT9fbZHffNhWlzX2S7f2-18">
          <mxGeometry relative="1" as="geometry">
            <Array as="points">
              <mxPoint x="470" y="367" />
            </Array>
          </mxGeometry>
        </mxCell>
        <mxCell id="hdsZDOFmJW38S7iMikZD-10" value="Teacher" style="shape=umlActor;verticalLabelPosition=bottom;labelBackgroundColor=#ffffff;verticalAlign=top;html=1;outlineConnect=0;" parent="1" vertex="1">
          <mxGeometry x="670" y="330" width="50" height="110" as="geometry" />
        </mxCell>
        <mxCell id="hdsZDOFmJW38S7iMikZD-49" style="edgeStyle=orthogonalEdgeStyle;orthogonalLoop=1;jettySize=auto;html=1;exitX=0.7;exitY=0.029;exitDx=0;exitDy=0;entryX=-0.012;entryY=0.642;entryDx=0;entryDy=0;entryPerimeter=0;endArrow=open;endFill=0;strokeColor=#000000;rounded=1;dashed=1;exitPerimeter=0;" parent="1" source="hdsZDOFmJW38S7iMikZD-16" target="hdsZDOFmJW38S7iMikZD-45" edge="1">
          <mxGeometry relative="1" as="geometry">
            <Array as="points">
              <mxPoint x="398" y="180" />
              <mxPoint x="433" y="180" />
              <mxPoint x="433" y="149" />
            </Array>
          </mxGeometry>
        </mxCell>
        <mxCell id="hdsZDOFmJW38S7iMikZD-16" value="Login" style="ellipse;whiteSpace=wrap;html=1;" parent="1" vertex="1">
          <mxGeometry x="335" y="160" width="90" height="69.5" as="geometry" />
        </mxCell>
        <mxCell id="hdsZDOFmJW38S7iMikZD-17" value="Tilmelde sig lecture" style="ellipse;whiteSpace=wrap;html=1;" parent="1" vertex="1">
          <mxGeometry x="280" y="370" width="80" height="60" as="geometry" />
        </mxCell>
        <mxCell id="hdsZDOFmJW38S7iMikZD-19" value="Oprette lecture" style="ellipse;whiteSpace=wrap;html=1;" parent="1" vertex="1">
          <mxGeometry x="460" y="399.5" width="80" height="60" as="geometry" />
        </mxCell>
        <mxCell id="hdsZDOFmJW38S7iMikZD-20" value="Fjerne lecture&amp;nbsp;" style="ellipse;whiteSpace=wrap;html=1;" parent="1" vertex="1">
          <mxGeometry x="460" y="470" width="80" height="60" as="geometry" />
        </mxCell>
        <mxCell id="hdsZDOFmJW38S7iMikZD-23" value="Se tilmeldte students på en lecture" style="ellipse;whiteSpace=wrap;html=1;" parent="1" vertex="1">
          <mxGeometry x="460" y="540" width="80" height="65" as="geometry" />
        </mxCell>
        <mxCell id="hdsZDOFmJW38S7iMikZD-45" value="Check for korrekt login" style="ellipse;whiteSpace=wrap;html=1;" parent="1" vertex="1">
          <mxGeometry x="480" y="100" width="80" height="60" as="geometry" />
        </mxCell>
        <mxCell id="hdsZDOFmJW38S7iMikZD-50" style="edgeStyle=orthogonalEdgeStyle;rounded=1;orthogonalLoop=1;jettySize=auto;html=1;exitX=1;exitY=0.5;exitDx=0;exitDy=0;dashed=1;endArrow=open;endFill=0;strokeColor=#000000;" parent="1" source="hdsZDOFmJW38S7iMikZD-46" edge="1">
          <mxGeometry relative="1" as="geometry">
            <mxPoint x="350" y="170" as="targetPoint" />
          </mxGeometry>
        </mxCell>
        <mxCell id="hdsZDOFmJW38S7iMikZD-46" value="Fejl ved login" style="ellipse;whiteSpace=wrap;html=1;" parent="1" vertex="1">
          <mxGeometry x="240" y="100" width="80" height="60" as="geometry" />
        </mxCell>
        <mxCell id="Q4LFnAZzLEwqTKA5tDAf-2" value="Framelde sig lecture" style="ellipse;whiteSpace=wrap;html=1;" parent="1" vertex="1">
          <mxGeometry x="280" y="440" width="80" height="60" as="geometry" />
        </mxCell>
        <mxCell id="Q4LFnAZzLEwqTKA5tDAf-5" value="Registrering&amp;nbsp;" style="ellipse;whiteSpace=wrap;html=1;" parent="1" vertex="1">
          <mxGeometry x="340" y="240.5" width="90" height="69.5" as="geometry" />
        </mxCell>
        <mxCell id="Q4LFnAZzLEwqTKA5tDAf-9" value="RELEASE1&amp;nbsp;" style="text;html=1;strokeColor=none;fillColor=none;align=center;verticalAlign=middle;whiteSpace=wrap;rounded=0;" parent="1" vertex="1">
          <mxGeometry x="560" y="615" width="40" height="20" as="geometry" />
        </mxCell>
        <mxCell id="Q4LFnAZzLEwqTKA5tDAf-10" value="RELEASE2" style="text;html=1;strokeColor=none;fillColor=none;align=center;verticalAlign=middle;whiteSpace=wrap;rounded=0;" parent="1" vertex="1">
          <mxGeometry x="560" y="710" width="40" height="20" as="geometry" />
        </mxCell>
        <mxCell id="Q4LFnAZzLEwqTKA5tDAf-11" value="Skal kunne betale for lecture" style="ellipse;whiteSpace=wrap;html=1;" parent="1" vertex="1">
          <mxGeometry x="260" y="660" width="80" height="60" as="geometry" />
        </mxCell>
        <mxCell id="Q4LFnAZzLEwqTKA5tDAf-44" value="" style="rounded=0;whiteSpace=wrap;html=1;gradientColor=#ffffff;fillColor=none;" parent="1" vertex="1">
          <mxGeometry x="180" y="650" width="440" height="90" as="geometry" />
        </mxCell>
        <mxCell id="hT9fbZHffNhWlzX2S7f2-11" value="Se tilmeldte students på en lecture" style="ellipse;whiteSpace=wrap;html=1;" vertex="1" parent="1">
          <mxGeometry x="280" y="510" width="80" height="65" as="geometry" />
        </mxCell>
        <mxCell id="hT9fbZHffNhWlzX2S7f2-13" value="Se liste over alle lectures" style="ellipse;whiteSpace=wrap;html=1;" vertex="1" parent="1">
          <mxGeometry x="280" y="580" width="80" height="65" as="geometry" />
        </mxCell>
        <mxCell id="hT9fbZHffNhWlzX2S7f2-18" value="Logout" style="ellipse;whiteSpace=wrap;html=1;" vertex="1" parent="1">
          <mxGeometry x="380" y="320" width="90" height="69.5" as="geometry" />
        </mxCell>
      </root>
    </mxGraphModel>
  </diagram>
</mxfile>
